<?xml version="1.0" encoding="utf-8"?>
<svg
	version="1.1"
	xmlns="http://www.w3.org/2000/svg"
	xmlns:xlink="http://www.w3.org/1999/xlink"
	x="0%" y="0%"
	width="100%" height="100%"
	viewBox="0 0 20.0 20.0"
	enable-background="new 0 0 20.0 20.0"
	xml:space="preserve">
<defs>
	<linearGradient id="fillGrad0" x1="0.113%" y1="4.028%" x2="97.179%" y2="96.369%">
   		<stop offset="0.000%" style="stop-color:rgb(0,216,255);stop-opacity:1.000" />
		<stop offset="100.000%" style="stop-color:rgb(156,0,255);stop-opacity:1.000" />
	</linearGradient>

</defs>
	<path
		transform = "rotate(-0.00 10.00 9.99)"
		fill="url(#fillGrad0)"
		stroke="#000000"
		fill-opacity="1.0"
		stroke-opacity="1.000"
		fill-rule="nonzero"
		stroke-width="0.0"
		stroke-linejoin="miter"
		stroke-linecap="square"
		d="M3.03,0.02L16.97,0.02A2.97 2.97 0 0 1 19.94,2.99L19.94,16.99A2.97 2.97 0 0 1 16.97,19.97L3.03,19.97A2.97 2.97 0 0 1 0.06,16.99L0.06,2.99A2.97 2.97 0 0 1 3.03,0.02z"/>
	<path
		fill="#FFFFFF"
		stroke="#000000"
		fill-opacity="0.078"
		stroke-opacity="0.078"
		fill-rule="nonzero"
		stroke-width="0.0"
		stroke-linejoin="miter"
		stroke-linecap="square"
		d="M10.01,1.60C14.71,1.60,18.51,5.34,18.51,9.95C18.51,14.56,14.71,18.30,10.01,18.30C5.32,18.30,1.52,14.56,1.52,9.95C1.52,5.34,5.32,1.60,10.01,1.60z"/>
	<path
		fill="#FFFFFF"
		stroke="#000000"
		fill-opacity="0.161"
		stroke-opacity="0.161"
		fill-rule="nonzero"
		stroke-width="0.0"
		stroke-linejoin="miter"
		stroke-linecap="square"
		d="M10.07,3.30C13.73,3.30,16.69,6.24,16.69,9.86C16.69,13.49,13.73,16.43,10.07,16.43C6.42,16.43,3.46,13.49,3.46,9.86C3.46,6.24,6.42,3.30,10.07,3.30z"/>
	<path
		fill="#FFFFFF"
		stroke="#000000"
		fill-opacity="1.000"
		stroke-opacity="1.000"
		fill-rule="nonzero"
		stroke-width="0.0"
		stroke-linejoin="round"
		stroke-linecap="square"
		d="M10.48,12.73A3.01 3.00 62.86 1 0 7.60,10.94Q7.96,12.14,6.76,12.88"/>
	<path
		fill="#258AFF"
		stroke="#000000"
		fill-opacity="1.000"
		stroke-opacity="1.000"
		fill-rule="nonzero"
		stroke-width="0.0"
		stroke-linejoin="round"
		stroke-linecap="square"
		d="M9.34,9.30C9.53,9.30,9.67,9.45,9.67,9.63C9.67,9.81,9.53,9.96,9.34,9.96C9.16,9.96,9.02,9.81,9.02,9.63C9.02,9.45,9.16,9.30,9.34,9.30z"/>
	<path
		fill="#258AFF"
		stroke="#000000"
		fill-opacity="1.000"
		stroke-opacity="1.000"
		fill-rule="nonzero"
		stroke-width="0.0"
		stroke-linejoin="round"
		stroke-linecap="square"
		d="M10.30,9.30C10.48,9.30,10.63,9.45,10.63,9.63C10.63,9.81,10.48,9.96,10.30,9.96C10.11,9.96,9.97,9.81,9.97,9.63C9.97,9.45,10.11,9.30,10.30,9.30z"/>
	<path
		fill="#258AFF"
		stroke="#000000"
		fill-opacity="1.000"
		stroke-opacity="1.000"
		fill-rule="nonzero"
		stroke-width="0.0"
		stroke-linejoin="round"
		stroke-linecap="square"
		d="M11.27,9.30C11.45,9.30,11.59,9.45,11.59,9.63C11.59,9.81,11.45,9.96,11.27,9.96C11.08,9.96,10.94,9.81,10.94,9.63C10.94,9.45,11.08,9.30,11.27,9.30z"/>
</svg>